<?xml version="1.0" standalone="no"?>
<!DOCTYPE svg PUBLIC "-//W3C//DTD SVG 20010904//EN"
 "http://www.w3.org/TR/2001/REC-SVG-20010904/DTD/svg10.dtd">
<svg version="1.0" xmlns="http://www.w3.org/2000/svg"
 width="512.000000pt" height="512.000000pt" viewBox="0 0 512.000000 512.000000"
 preserveAspectRatio="xMidYMid meet">

<g transform="translate(0.000000,512.000000) scale(0.100000,-0.100000)"
fill="#000000" stroke="none">
<path d="M1300 5031 c-111 -35 -170 -114 -178 -238 l-5 -72 -431 -3 c-420 -3
-432 -4 -471 -25 -47 -25 -85 -64 -111 -113 -18 -34 -19 -95 -19 -1700 l0
-1665 22 -40 c25 -47 64 -85 113 -111 34 -18 87 -19 1385 -19 1258 0 1352 1
1381 17 41 22 90 71 112 112 16 29 17 140 17 1701 0 1610 -1 1671 -19 1705
-26 49 -64 88 -111 113 -39 21 -51 22 -471 25 l-431 3 -5 72 c-7 108 -49 176
-138 223 -32 17 -63 19 -325 21 -159 1 -301 -2 -315 -6z m595 -176 c21 -20 25
-34 25 -80 l0 -55 -320 0 -320 0 0 55 c0 46 4 60 25 80 l24 25 271 0 271 0 24
-25z m-1413 -1727 l3 -1433 22 -40 c25 -47 64 -85 113 -111 33 -18 77 -19 985
-19 1054 0 973 -5 1044 66 72 71 66 -65 69 1532 l2 1437 96 0 c87 0 97 -2 119
-25 l25 -24 0 -1620 c0 -1166 -3 -1627 -11 -1644 -6 -14 -22 -30 -36 -36 -17
-8 -392 -11 -1324 -11 l-1300 0 -24 25 -25 24 0 1631 0 1631 25 24 c22 23 32
25 119 25 l96 0 2 -1432z m480 1320 c3 -84 9 -122 22 -148 25 -49 64 -88 111
-113 39 -22 48 -22 505 -22 457 0 466 0 505 22 47 25 86 64 111 113 13 26 19
64 22 148 l4 112 159 0 159 0 0 -1405 c0 -1008 -3 -1411 -11 -1428 -6 -14 -22
-30 -36 -36 -17 -8 -286 -11 -924 -11 l-900 0 -24 25 -25 24 0 1416 0 1415
159 0 159 0 4 -112z m1118 17 c0 -88 -2 -98 -25 -120 l-24 -25 -431 0 -431 0
-24 25 c-23 22 -25 32 -25 120 l0 95 480 0 480 0 0 -95z"/>
<path d="M1157 3909 c-9 -6 -45 -65 -78 -131 l-61 -121 -46 46 c-26 24 -57 48
-70 52 -55 16 -111 -41 -97 -97 8 -31 180 -202 213 -213 13 -4 36 -1 53 5 25
11 44 41 119 192 50 98 90 190 90 204 0 54 -74 92 -123 63z"/>
<path d="M1384 3735 c-22 -22 -25 -33 -21 -63 12 -71 -15 -67 517 -67 540 0
515 -4 515 75 0 78 24 75 -511 78 l-474 3 -26 -26z"/>
<path d="M1157 3269 c-9 -6 -45 -65 -78 -131 l-61 -121 -46 46 c-26 24 -57 48
-70 52 -55 16 -111 -41 -97 -97 8 -31 180 -202 213 -213 13 -4 36 -1 53 5 25
11 44 41 119 192 50 98 90 190 90 204 0 54 -74 92 -123 63z"/>
<path d="M1384 3095 c-22 -22 -25 -33 -21 -63 12 -71 -15 -67 517 -67 540 0
515 -4 515 75 0 78 24 75 -511 78 l-474 3 -26 -26z"/>
<path d="M1383 2454 c-21 -21 -24 -32 -20 -62 12 -70 -14 -67 513 -70 l474 -3
25 25 c33 33 33 79 0 111 l-24 25 -471 0 -471 0 -26 -26z"/>
<path d="M3620 4311 c-70 -23 -121 -66 -156 -131 -18 -33 -19 -85 -22 -1202
l-2 -1167 136 -181 c91 -120 145 -182 160 -186 54 -14 71 2 209 187 l135 180
-2 1167 -3 1167 -22 40 c-25 47 -64 85 -113 111 -28 15 -61 19 -165 21 -71 1
-141 -1 -155 -6z m275 -176 c24 -23 25 -29 25 -160 l0 -135 -160 0 -160 0 0
135 c0 131 1 137 25 160 23 24 31 25 135 25 104 0 112 -1 135 -25z m25 -1361
l0 -907 -77 -103 c-43 -57 -81 -103 -85 -102 -4 2 -41 49 -82 106 l-76 102 0
905 0 905 160 0 160 0 0 -906z"/>
</g>
</svg>
