<?xml version="1.0" standalone="no"?>
<!DOCTYPE svg PUBLIC "-//W3C//DTD SVG 20010904//EN"
 "http://www.w3.org/TR/2001/REC-SVG-20010904/DTD/svg10.dtd">
<svg version="1.0" xmlns="http://www.w3.org/2000/svg"
 width="512.000000pt" height="512.000000pt" viewBox="0 0 512.000000 512.000000"
 preserveAspectRatio="xMidYMid meet">

<g transform="translate(0.000000,512.000000) scale(0.100000,-0.100000)"
fill="#000000" stroke="none">
<path d="M829 4981 c-18 -14 -24 -29 -24 -60 0 -69 14 -76 175 -79 l140 -4 0
-237 0 -238 -72 -5 c-151 -10 -236 -94 -246 -244 l-4 -72 -132 -4 c-153 -6
-230 -27 -322 -86 -116 -76 -197 -181 -237 -307 l-22 -70 0 -1200 0 -1200 22
-40 c25 -47 64 -85 113 -111 33 -18 83 -19 1110 -22 591 -2 1094 0 1116 3 62
9 126 56 160 117 l29 53 0 1200 0 1200 -22 70 c-27 86 -82 173 -152 242 -106
103 -247 153 -431 153 l-107 0 -5 73 c-10 151 -94 235 -245 245 l-73 5 0 239
0 239 269 -3 c254 -3 271 -4 297 -24 44 -32 63 -65 74 -124 13 -67 29 -85 80
-85 57 0 75 22 75 93 -1 111 -75 219 -184 271 l-56 26 -651 3 c-629 2 -652 2
-675 -17z m611 -221 l0 -80 -80 0 -80 0 0 80 0 80 80 0 80 0 0 -80z m0 -320
l0 -80 -80 0 -80 0 0 80 0 80 80 0 80 0 0 -80z m295 -265 c21 -20 25 -34 25
-80 l0 -55 -400 0 -400 0 0 55 c0 46 4 60 25 80 l24 25 351 0 351 0 24 -25z
m507 -332 c93 -44 151 -100 195 -191 36 -72 37 -79 41 -203 l4 -129 -1121 0
-1121 0 0 103 c1 113 10 165 42 235 27 57 118 151 173 177 93 44 91 44 925 42
l795 -2 67 -32z m238 -1443 l0 -760 -1120 0 -1120 0 0 760 0 760 1120 0 1120
0 0 -760z m0 -1045 c0 -134 -8 -166 -47 -184 -17 -8 -328 -11 -1084 -11
l-1060 0 -24 25 c-24 23 -25 29 -25 160 l0 135 1120 0 1120 0 0 -125z"/>
<path d="M1142 2737 c-152 -154 -186 -194 -211 -248 -89 -190 -54 -398 93
-545 277 -277 741 -126 808 264 15 91 1 189 -43 281 -25 54 -59 94 -211 248
-169 170 -184 183 -218 183 -34 0 -49 -13 -218 -183z m354 -139 c145 -148 174
-194 181 -292 11 -132 -52 -245 -171 -306 -61 -31 -77 -35 -146 -35 -69 0 -85
4 -146 35 -119 61 -182 174 -171 306 7 98 36 144 181 292 71 72 132 132 136
132 4 0 65 -60 136 -132z"/>
<path d="M3300 4111 c-70 -22 -121 -65 -156 -131 -18 -32 -19 -67 -22 -436
l-3 -402 -29 -12 c-42 -17 -107 -91 -119 -136 -7 -27 -11 -325 -11 -924 0
-836 1 -887 19 -925 21 -46 69 -98 115 -123 28 -15 71 -17 426 -17 436 0 421
-2 489 66 71 70 66 -3 69 987 2 618 -1 906 -8 934 -13 46 -77 120 -120 138
l-29 12 -3 402 c-3 389 -4 402 -25 441 -25 47 -64 85 -113 111 -31 17 -62 19
-245 21 -115 1 -221 -2 -235 -6z m435 -176 c25 -24 25 -24 25 -240 l0 -215
-240 0 -240 0 0 215 c0 286 -19 265 240 265 189 0 191 0 215 -25z m25 -695 l0
-80 -240 0 -240 0 0 80 0 80 240 0 240 0 0 -80z m113 -251 c41 -18 47 -49 47
-224 l0 -165 -215 0 -216 0 -26 -26 c-21 -21 -24 -32 -19 -62 11 -69 21 -72
262 -72 l214 0 0 -160 0 -160 -215 0 c-216 0 -216 0 -240 -25 -16 -15 -25 -36
-25 -55 0 -19 9 -40 25 -55 24 -25 24 -25 240 -25 l215 0 0 -160 0 -160 -215
0 -216 0 -26 -26 c-21 -21 -24 -32 -20 -62 11 -66 13 -67 257 -70 l220 -3 0
-124 c0 -134 -8 -166 -47 -184 -33 -15 -673 -15 -706 0 -14 6 -30 22 -36 36
-16 34 -16 1712 0 1747 6 13 21 29 33 34 30 15 677 16 709 1z"/>
<path d="M3465 3816 c-25 -26 -27 -32 -23 -101 4 -89 19 -110 78 -110 62 0 75
21 75 115 0 90 -10 107 -67 117 -31 4 -41 1 -63 -21z"/>
</g>
</svg>
