<?xml version="1.0" standalone="no"?>
<!DOCTYPE svg PUBLIC "-//W3C//DTD SVG 20010904//EN"
 "http://www.w3.org/TR/2001/REC-SVG-20010904/DTD/svg10.dtd">
<svg version="1.0" xmlns="http://www.w3.org/2000/svg"
 width="512.000000pt" height="512.000000pt" viewBox="0 0 512.000000 512.000000"
 preserveAspectRatio="xMidYMid meet">

<g transform="translate(0.000000,512.000000) scale(0.100000,-0.100000)"
fill="#000000" stroke="none">
<path d="M1700 5029 c-562 -72 -981 -443 -1107 -979 -20 -86 -26 -142 -30
-305 l-6 -199 -210 -281 c-116 -154 -222 -299 -234 -322 -32 -57 -39 -127 -20
-194 21 -69 61 -117 128 -154 51 -27 62 -29 196 -33 l142 -4 3 -312 c3 -299 4
-313 25 -353 12 -22 39 -55 60 -72 66 -54 108 -61 390 -61 l253 0 -71 -82
c-166 -193 -216 -380 -150 -570 69 -201 226 -319 506 -380 100 -22 377 -16
513 11 372 73 719 263 943 516 232 263 397 629 439 975 6 52 15 96 20 98 5 2
40 25 79 53 392 275 586 774 482 1239 -93 416 -405 758 -806 883 -44 13 -96
28 -115 32 -21 5 -64 33 -115 77 -213 185 -483 321 -755 382 -199 43 -397 56
-560 35z m321 -155 l44 -6 0 -97 c0 -87 3 -102 32 -163 30 -64 95 -140 158
-184 l29 -21 -54 -35 c-30 -20 -71 -48 -91 -63 l-36 -26 -59 22 c-208 77 -324
251 -324 484 0 45 3 85 7 88 8 9 235 9 294 1z m-461 -97 c0 -264 140 -494 362
-596 l57 -26 -35 -44 c-19 -25 -44 -59 -55 -78 -19 -31 -24 -33 -73 -33 -150
0 -308 86 -412 223 -91 120 -213 424 -187 466 19 30 284 157 336 160 4 1 7
-32 7 -72z m815 21 c117 -39 269 -112 370 -179 l80 -53 -106 -17 c-58 -9 -132
-25 -165 -34 -74 -23 -80 -22 -150 11 -138 65 -208 180 -178 291 7 27 11 26
149 -19z m-1280 -310 c63 -192 189 -392 308 -488 105 -85 186 -121 348 -154
l26 -6 -33 -97 c-18 -54 -33 -106 -34 -115 0 -26 -66 -24 -182 6 -211 53 -383
179 -507 371 -49 76 -114 218 -132 289 -11 45 -11 46 34 108 41 58 134 168
142 168 2 0 15 -37 30 -82z m1972 -103 c640 -121 1016 -788 783 -1387 -160
-413 -533 -670 -970 -670 -402 1 -753 218 -932 577 -77 155 -103 272 -102 465
1 133 4 169 26 251 104 389 406 676 798 760 107 22 290 24 397 4z m-2162 -485
c72 -109 218 -255 308 -308 127 -76 328 -141 435 -142 l32 0 0 -82 c0 -163 41
-349 111 -504 35 -79 123 -216 174 -273 37 -41 37 -41 26 -87 -36 -143 -151
-281 -415 -498 l-105 -86 -341 0 c-348 0 -369 2 -397 39 -8 11 -12 59 -13 144
l0 128 63 -7 c123 -12 318 30 423 91 76 45 94 96 49 140 -30 31 -63 31 -123 1
-109 -55 -268 -86 -366 -72 l-46 7 0 139 c0 195 14 184 -230 190 l-192 5 -29
33 c-56 62 -55 64 206 412 130 173 238 323 240 335 2 11 6 112 9 225 3 164 8
222 25 289 12 46 24 88 28 94 3 5 19 -19 35 -54 16 -34 57 -106 93 -159z
m1295 -1526 c25 -17 80 -50 123 -74 42 -23 77 -44 77 -47 0 -3 -14 -32 -32
-65 -47 -89 -157 -194 -306 -292 -71 -47 -132 -92 -136 -101 -11 -29 -7 -52
14 -78 31 -39 64 -42 124 -11 205 107 419 311 471 449 17 44 20 46 49 42 17
-3 69 -11 116 -17 47 -7 97 -15 112 -18 l28 -7 -44 -87 c-90 -178 -248 -367
-405 -486 -124 -93 -339 -193 -465 -216 -46 -9 -86 -46 -86 -80 0 -14 11 -37
24 -52 29 -34 59 -35 175 -5 385 100 724 398 923 811 33 69 61 126 62 127 1 2
39 10 83 18 45 8 107 24 139 35 31 11 58 20 59 20 1 0 -6 -46 -16 -102 -68
-369 -296 -749 -579 -960 -164 -123 -416 -230 -655 -280 -130 -26 -370 -31
-470 -9 -241 53 -371 176 -383 364 -11 175 78 293 478 635 268 229 398 374
440 494 8 21 18 34 24 30 6 -3 31 -20 56 -38z"/>
<path d="M2782 4146 c-130 -43 -224 -186 -209 -319 6 -43 4 -48 -11 -42 -92
40 -177 46 -258 18 -70 -24 -155 -110 -179 -183 -25 -74 -23 -164 6 -229 37
-88 161 -181 241 -181 24 0 23 -4 -8 -37 -77 -81 -102 -227 -56 -328 30 -66
103 -138 166 -166 130 -57 296 -5 373 117 15 24 30 44 33 44 3 0 18 -20 33
-45 39 -60 111 -111 186 -131 104 -26 205 3 284 84 117 119 124 287 16 423
-27 34 -28 39 -12 39 81 0 204 92 242 181 29 65 31 155 6 229 -24 73 -109 159
-179 183 -80 27 -167 22 -256 -17 -13 -5 -15 6 -15 66 0 124 -69 234 -174 281
-58 26 -170 32 -229 13z m175 -166 c73 -44 88 -111 49 -226 l-26 -79 -100 0
-100 0 -26 79 c-29 85 -28 137 1 182 25 39 74 64 125 64 27 0 58 -8 77 -20z
m-431 -361 c99 -69 96 -63 69 -117 -13 -26 -26 -68 -30 -94 l-7 -48 -82 0
c-94 0 -151 21 -184 67 -32 46 -37 94 -14 147 27 59 70 86 138 86 43 0 59 -6
110 -41z m902 21 c44 -27 76 -98 67 -148 -17 -90 -84 -131 -211 -132 l-82 0
-7 48 c-4 26 -17 68 -30 94 -27 54 -30 48 69 117 51 35 67 41 110 41 34 0 62
-7 84 -20z m-468 -142 c57 -39 75 -72 75 -137 0 -73 -33 -121 -99 -146 -53
-20 -99 -15 -146 18 -127 86 -63 287 90 287 32 0 57 -7 80 -22z m-304 -359
c16 -17 51 -42 77 -56 27 -13 47 -30 44 -36 -2 -7 -14 -42 -26 -79 -35 -106
-81 -149 -161 -150 -107 -1 -182 118 -133 212 15 29 145 140 164 140 3 0 18
-14 35 -31z m559 -22 c83 -61 108 -103 102 -166 -14 -132 -183 -181 -265 -76
-12 14 -31 56 -43 93 -12 37 -24 72 -26 79 -3 6 17 23 44 36 26 14 61 39 77
56 17 17 32 31 35 31 3 0 38 -24 76 -53z"/>
</g>
</svg>
