<?xml version="1.0" standalone="no"?>
<!DOCTYPE svg PUBLIC "-//W3C//DTD SVG 20010904//EN"
 "http://www.w3.org/TR/2001/REC-SVG-20010904/DTD/svg10.dtd">
<svg version="1.0" xmlns="http://www.w3.org/2000/svg"
 width="512.000000pt" height="512.000000pt" viewBox="0 0 512.000000 512.000000"
 preserveAspectRatio="xMidYMid meet">

<g transform="translate(0.000000,512.000000) scale(0.100000,-0.100000)"
fill="#000000" stroke="none">
<path d="M2026 5017 l-26 -26 0 -301 0 -300 -39 0 c-91 0 -300 -51 -422 -104
-18 -8 -18 -7 -198 336 -67 126 -88 159 -112 168 -51 21 -109 -19 -109 -76 0
-8 42 -94 94 -192 51 -97 109 -209 129 -248 l36 -72 -71 -47 c-81 -54 -236
-200 -299 -281 -23 -30 -45 -54 -50 -54 -4 0 -163 95 -352 210 -220 134 -355
210 -371 210 -60 0 -98 -83 -58 -128 9 -11 171 -113 359 -226 l341 -207 -33
-73 c-62 -137 -115 -342 -115 -447 l0 -39 -300 0 -301 0 -26 -26 c-21 -21 -24
-32 -20 -62 12 -68 4 -67 341 -70 l303 -3 7 -79 c8 -96 46 -249 87 -344 16
-39 29 -75 29 -81 0 -5 -61 -43 -135 -83 -75 -41 -140 -82 -145 -92 -27 -50
11 -120 64 -120 14 0 86 34 161 75 74 41 137 75 139 75 2 0 19 -24 38 -52 66
-98 164 -200 297 -308 l43 -35 -137 -228 c-125 -208 -136 -231 -131 -263 9
-48 46 -70 94 -58 34 8 44 22 169 229 73 121 134 224 136 229 1 5 48 -9 103
-31 132 -54 212 -78 309 -92 44 -7 94 -14 112 -17 l32 -5 3 -219 c3 -249 5
-255 78 -255 73 0 75 6 78 255 l3 219 32 5 c18 3 55 8 82 11 85 10 214 45 314
86 52 21 96 37 97 36 0 -1 25 -45 54 -97 30 -52 89 -155 132 -228 43 -73 78
-137 78 -141 0 -5 13 -23 29 -40 20 -22 38 -31 60 -31 59 0 98 70 68 122 -9
16 -34 61 -56 101 -21 39 -80 143 -130 231 -50 87 -91 161 -91 165 0 4 24 24
53 44 68 47 228 206 285 282 24 33 49 59 55 57 5 -2 88 -48 183 -102 96 -55
185 -100 199 -100 33 0 75 42 75 75 0 40 -16 62 -68 91 -157 90 -303 178 -308
185 -3 5 2 21 10 36 30 59 95 271 106 348 6 44 13 94 16 112 l5 32 179 3 c204
3 215 7 215 78 0 71 -11 75 -215 78 l-179 3 -5 32 c-3 18 -10 68 -16 112 -15
100 -49 211 -106 340 -24 55 -41 101 -37 103 5 1 148 92 318 201 264 169 311
203 319 229 13 45 -10 85 -55 96 -36 9 -45 4 -353 -193 -174 -110 -320 -201
-324 -201 -4 0 -20 19 -37 41 -45 62 -214 221 -278 264 -31 21 -57 42 -57 48
0 5 50 100 112 211 123 223 134 261 88 297 -28 21 -62 24 -90 9 -10 -5 -68
-101 -129 -212 -61 -112 -115 -209 -120 -217 -7 -11 -22 -8 -83 17 -101 42
-251 80 -348 88 l-79 7 -3 303 c-3 337 -2 329 -70 341 -30 4 -41 1 -62 -20z
m244 -792 c458 -75 831 -406 960 -853 57 -197 63 -378 20 -585 -80 -392 -372
-729 -751 -868 -435 -159 -913 -63 -1243 251 -384 365 -485 932 -249 1405 234
468 749 733 1263 650z"/>
<path d="M1746 4070 c-63 -16 -153 -70 -197 -117 -56 -61 -98 -155 -106 -235
-28 -304 288 -528 563 -399 206 97 290 333 189 537 -65 132 -187 213 -333 220
-42 2 -94 -1 -116 -6z m175 -165 c58 -21 124 -87 144 -144 32 -95 13 -173 -60
-246 -102 -103 -243 -101 -338 5 -94 105 -89 242 13 333 73 66 153 83 241 52z"/>
<path d="M2703 3342 c-109 -39 -178 -112 -210 -221 -40 -140 39 -312 175 -374
73 -34 198 -31 274 6 113 55 172 152 173 282 0 95 -28 168 -90 230 -82 81
-219 114 -322 77z m160 -156 c103 -43 128 -177 48 -257 -112 -113 -296 -12
-267 146 18 94 128 150 219 111z"/>
<path d="M1901 3030 c-241 -51 -411 -297 -374 -540 55 -355 473 -529 758 -315
261 196 260 578 -3 771 -98 73 -263 109 -381 84z m231 -182 c66 -31 127 -90
159 -156 34 -69 34 -197 0 -267 -32 -63 -92 -124 -156 -155 -72 -35 -198 -35
-270 0 -178 87 -238 303 -130 467 38 57 105 109 169 129 63 21 161 13 228 -18z"/>
</g>
</svg>
